<svg id="Слой_1" data-name="Слой 1" xmlns="http://www.w3.org/2000/svg" viewBox="0 0 1005.44 251.7"><defs><style>.cls-1,.cls-2{fill:#fff;}.cls-2{fill-rule:evenodd;}</style></defs><title>maxicars svg 2</title><path class="cls-1" d="M389.1,45.08h-16a5.4,5.4,0,0,0-4,1.93L337.44,82a.85.85,0,0,1-.51.31c-.07,0-.17-.21-.31-.61L332.87,47c-.2-1.29-1.05-1.93-2.54-1.93H315.82a3.68,3.68,0,0,0-3.66,2.64L297,85.15A87.05,87.05,0,0,1,315.81,89a135.69,135.69,0,0,0-19.56-1.93L292,97.73a102.77,102.77,0,0,1,16.79,4.17h-.88c-5.62-.79-11.29-1.3-17-1.56l-6.13,15.18q-1,2.64,1.52,2.64h15.94a3.79,3.79,0,0,0,3.85-2.64l9.14-22.64,2.23,15.63c.2,1.29,1.08,1.93,2.64,1.93H332a5.36,5.36,0,0,0,4-1.93l15.23-15.73L342,115.52q-1,2.64,1.63,2.64h15.93a3.74,3.74,0,0,0,3.76-2.64l27.4-67.8Q391.74,45.08,389.1,45.08Z" transform="translate(1.93)"/><path class="cls-1" d="M465.83,47.31c0-1.49-.77-2.23-2.33-2.23h-16a5.31,5.31,0,0,0-4.16,2.23l-56,67.9q-2.43,3,.71,3h19.29a5,5,0,0,0,2.28-.41,7,7,0,0,0,1.88-1.83l34.1-42.83.11,15.53c0,.61-.34.91-1,.91h-4.77a5.86,5.86,0,0,0-2.38.36,6.1,6.1,0,0,0-1.88,1.78l-8.93,11.26q-2.45,3,.81,2.95h17c.68,0,1,.3,1,.91v9.13c-.06,1.49.71,2.24,2.34,2.24h16q3.13,0,3.14-3Z" transform="translate(1.93)"/><path class="cls-1" d="M554.85,115.21,538.2,46.9c-.34-1.15-1.28-1.72-2.84-1.72H514.55q-3.45,0-2.74,2.94l8,32.48a1.62,1.62,0,0,1-.51,1.73l-34.61,32.88a4.82,4.82,0,0,0-1.32,1.88c-.27.71.31,1.07,1.73,1.07h20.6a5.83,5.83,0,0,0,4.16-1.93L526.23,99l2.63,17.26a2.22,2.22,0,0,0,2.54,1.93H552C554.38,118.16,555.32,117.18,554.85,115.21Zm26.59-70h-20.8a5.51,5.51,0,0,0-4.07,1.93l-9,9.33a4.06,4.06,0,0,0-1.42,4l3.55,14.31c.21.89.61,1.32,1.22,1.32a3.61,3.61,0,0,0,2.34-1.32L582,48.12a6.34,6.34,0,0,0,1.47-2C583.66,45.48,583,45.18,581.44,45.18Z" transform="translate(1.93)"/><path class="cls-1" d="M626.2,45.08h-16a4,4,0,0,0-3.76,2.74l-27.3,67.6c-.82,1.82-.31,2.74,1.52,2.74h16a4,4,0,0,0,3.75-2.74l27.31-67.6Q628.94,45.08,626.2,45.08Z" transform="translate(1.93)"/><path class="cls-1" d="M718.47,45.08H677.76q-9.54,0-14.87,3.8t-9.18,13.35L638,101q-3,7.22,0,12.18t10.2,5h40.7a4,4,0,0,0,3.75-2.74l5.59-13.81q1-2.64-1.63-2.64h-34.1c-.61,0-.81-.33-.61-1l13.19-32.58a1.58,1.58,0,0,1,1.43-1.12h34.2a3.68,3.68,0,0,0,3.66-2.64L720,47.82C720.66,46,720.16,45.08,718.47,45.08Z" transform="translate(1.93)"/><path class="cls-1" d="M792.46,47.31c0-1.49-.78-2.23-2.34-2.23h-16a5.28,5.28,0,0,0-4.16,2.23l-56,67.9q-2.45,3,.71,3h19.28a5,5,0,0,0,2.29-.41,7,7,0,0,0,1.87-1.83l34.11-42.83.1,15.53c0,.61-.34.91-1,.91h-4.77a5.89,5.89,0,0,0-2.38.36,6.1,6.1,0,0,0-1.88,1.78l-8.93,11.26c-1.62,2-1.36,2.95.81,2.95h17c.68,0,1,.3,1,.91v9.13c-.07,1.49.71,2.24,2.33,2.24h16q3.15,0,3.15-3Z" transform="translate(1.93)"/><path class="cls-1" d="M906.39,50.1c-2-3.35-5.4-5-10.2-5h-47.7a4,4,0,0,0-3.76,2.74l-27.3,67.6c-.81,1.82-.31,2.74,1.52,2.74h16a4,4,0,0,0,3.75-2.74L859,65.28a1.34,1.34,0,0,1,1.42-1H883.2c.61,0,.81.34.61,1l-4.06,10.15a1.45,1.45,0,0,1-1.42,1H861.78A4,4,0,0,0,858,79.18l-5.28,13q-1,2.64,1.62,2.64h1l8,21.62c.4,1.15,1.45,1.73,3.14,1.73H883.4c2.51,0,3.35-1,2.54-2.84l-7.82-20.51q8.24,0,12.44-2.43t6.85-8.63l9-21.52Q909.4,55.12,906.39,50.1Z" transform="translate(1.93)"/><path class="cls-1" d="M1002.06,49.9q-2.85-4.83-9.85-4.82H959.83q-9,0-14.36,3.8t-9,12.84l-4.67,11.37q-2.75,7,.1,11.83t9.85,4.82h28.82c.95,0,1.22.44.82,1.32l-3.25,8.12a1.91,1.91,0,0,1-1.93,1.32H942c-.88,0-1.12-.44-.71-1.32l.91-2.44c.54-1.15.21-1.73-1-1.73H924.71a2.6,2.6,0,0,0-2.43,1.73l-1.93,4.77q-2.85,7,0,11.83t9.9,4.82h33.39q8.92,0,14.26-3.81T987,101.51l4.66-11.37q2.74-7-.1-11.82t-9.84-4.82H952.93c-.95,0-1.22-.44-.82-1.32l3.25-8.12a1.92,1.92,0,0,1,1.94-1.32h23.24c.88,0,1.12.44.71,1.32l-.91,2.43c-.55,1.15-.21,1.73,1,1.73h16.44a2.6,2.6,0,0,0,2.44-1.73l1.93-4.77Q1004.91,54.72,1002.06,49.9Z" transform="translate(1.93)"/><path class="cls-1" d="M635.26,190.38c1.22,0,1.6.61,1.13,1.83l-3.88,9.58a2.76,2.76,0,0,1-2.6,1.9H601.67q-5,0-7.08-3.45t0-8.45l10.92-26.91q2.67-6.62,6.37-9.26T622.16,153H650.4c1.18,0,1.53.63,1.06,1.9l-3.87,9.58a2.55,2.55,0,0,1-2.54,1.83H621.32a1.09,1.09,0,0,0-1,.77l-9.16,22.61c-.14.47,0,.71.43.71Z" transform="translate(1.93)"/><path class="cls-1" d="M697.66,190.38c1.22,0,1.6.61,1.13,1.83l-3.88,9.58a2.76,2.76,0,0,1-2.6,1.9H653.5c-1.27,0-1.62-.64-1.06-1.9l18.95-46.91A2.75,2.75,0,0,1,674,153h38.8c1.27,0,1.62.63,1.06,1.9L710,164.46a2.54,2.54,0,0,1-2.53,1.83H682.17a.93.93,0,0,0-1,.7L672,189.67c-.14.47,0,.71.43.71Zm-16.27-15.85a2.75,2.75,0,0,1,2.61-1.9h17.74c1.27,0,1.62.63,1.06,1.9l-3,7.61a2.76,2.76,0,0,1-2.6,1.9H679.42c-1.27,0-1.62-.64-1.06-1.9Z" transform="translate(1.93)"/><path class="cls-1" d="M715.12,201.79l19-46.91a2.75,2.75,0,0,1,2.61-1.9H747.8a1.8,1.8,0,0,1,1.91,1.27l7.88,23.38c0,.19,0,.28.14.28s.24-.14.29-.42l9.15-22.61a2.76,2.76,0,0,1,2.61-1.9h11.05c1.32,0,1.7.63,1.13,1.9L763,201.79a2.82,2.82,0,0,1-2.68,1.9H749.28a1.79,1.79,0,0,1-1.9-1.27L739.56,179c0-.19-.11-.28-.21-.28s-.14.14-.28.42l-9.16,22.68a2.76,2.76,0,0,1-2.6,1.9H716.18C714.91,203.69,714.56,203.05,715.12,201.79Z" transform="translate(1.93)"/><path class="cls-1" d="M795.62,166.29c-1.22,0-1.59-.61-1.12-1.83l3.87-9.58A2.75,2.75,0,0,1,801,153h44.23c1.31,0,1.69.63,1.12,1.9l-3.87,9.58a2.6,2.6,0,0,1-2.61,1.83Zm26.41,3c1.23,0,1.6.61,1.13,1.83l-12.39,30.64a2.78,2.78,0,0,1-2.61,1.9H797.1c-1.31,0-1.69-.64-1.12-1.9l12.39-30.64a2.6,2.6,0,0,1,2.61-1.83Z" transform="translate(1.93)"/><path class="cls-1" d="M889,190.38c1.22,0,1.6.61,1.13,1.83l-3.87,9.58a2.78,2.78,0,0,1-2.61,1.9H844.85c-1.26,0-1.62-.64-1.05-1.9l18.94-46.91a2.76,2.76,0,0,1,2.61-1.9h38.8c1.27,0,1.62.63,1.06,1.9l-3.87,9.58a2.55,2.55,0,0,1-2.54,1.83H873.52a.93.93,0,0,0-1,.7l-9.22,22.68c-.15.47,0,.71.42.71Zm-16.27-15.85a2.76,2.76,0,0,1,2.61-1.9H893.1c1.26,0,1.62.63,1,1.9l-3,7.61a2.76,2.76,0,0,1-2.6,1.9H870.77c-1.27,0-1.62-.64-1.06-1.9Z" transform="translate(1.93)"/><path class="cls-1" d="M905.63,201.79l19-46.91a2.75,2.75,0,0,1,2.6-1.9h33.11q5,0,7.07,3.49t0,8.41l-6.27,14.93a12.06,12.06,0,0,1-4.75,6q-2.93,1.69-8.63,1.69l5.42,14.23c.57,1.31,0,2-1.76,2H939.72c-1.17,0-1.9-.4-2.18-1.2l-5.57-15h-.7c-1.22,0-1.6-.61-1.13-1.83l3.66-9a2.78,2.78,0,0,1,2.61-1.9h11.48a1,1,0,0,0,1-.7l2.81-7c.14-.46,0-.7-.42-.7H935.49a.93.93,0,0,0-1,.7l-14.09,34.8a2.76,2.76,0,0,1-2.6,1.9H906.69C905.42,203.69,905.07,203.05,905.63,201.79Z" transform="translate(1.93)"/><g id="Слой_2" data-name="Слой 2"><path class="cls-2" d="M77.8,24.7,120.63,0A126,126,0,0,0,0,148c8.23-14.54,27.5-19.66,43.19-22.06,16.23-2.47,26.51-2.29,40.76-16.07,5.18-5,10.42-11.79,13.25-19.14C106.21,67.38,99.71,40,77.8,24.7ZM58.14,59.37l9.75-6.62c19.57,22.53,15,38.26,3.44,54.89C78.47,89.54,77.83,74.81,58.14,59.37Zm4.39,60.92C95,96.16,89.45,62.44,66.13,42.52L79.21,34C113.57,68.16,90.8,107.7,62.53,120.29Z" transform="translate(1.93)"/><path class="cls-2" d="M137.9,56c-.18-6.64-3.51-12-7.93-13.46,6.18.07,11.2,6.66,11.44,15.29.24,9.08-4.93,17-11.54,17.62-4.7.46-8.87-2.85-11-8.08,2.09,3.13,5.15,5,8.53,4.62C133.43,71.4,138.12,64.25,137.9,56Z" transform="translate(1.93)"/><path class="cls-2" d="M149.16,60.38c-1.32-18.19-5.07-37-17.9-53.11-10.63,5.58-22.43,12.47-33.08,18,12.55,19.28,11.23,41.8,6.37,58.81,2.3-19.39,2.12-39.77-13.07-60L133.31.65C145.72,19.4,152,39.15,149.16,60.38Z" transform="translate(1.93)"/><path class="cls-2" d="M241.16,79.42c-3.35.4-6.69.86-10,1.4-38,6.11-74.63,19.74-109.06,36.76-16.41,8.1-26.12,14.22-44.65,16.19C51.55,136.51,20.65,142,4,164.14A124.79,124.79,0,0,1,.49,150.61c13.71-23.29,43.55-16,78.43-23,63.6-13.3,97.62-64.44,63.64-126.29A126.21,126.21,0,0,1,241.16,79.42Z" transform="translate(1.93)"/><path class="cls-2" d="M296.25,87.09l.78-1.94a168,168,0,0,0-18-.92,420.15,420.15,0,0,0-46.68,4.16c-37.24,6-73.18,19.41-106.88,36.07-18.16,9-26.75,13.66-46.66,15.77C54.43,142.81,36,148.13,23.07,157A46.88,46.88,0,0,0,1.36,204.92,45.84,45.84,0,0,1,8,183a47.11,47.11,0,0,1,14.27-16.11c-13.48,24,2.3,39.85,20.2,55.08a41.9,41.9,0,0,1-1.83-12.28c0-1,0-2,.11-3a43,43,0,0,1,85.41-5,41.88,41.88,0,0,0-82,7.23c-.74,4.9,0,10.16,1.44,15.6a126.39,126.39,0,0,0,18.72,12.38c-12-14.82-15.44-35.59,3.6-49.47,22.38-16.32,53.52,6.86,42.47,33.42-.28.66-.58,1.3-.89,1.93a25.4,25.4,0,0,0-47.61-17.63C55.67,224.52,69.6,236.86,86.37,244c24.6,10.43,50.6,9.57,75.8,1.82A121.2,121.2,0,0,0,192,232.07l-73.84-1.7,79.19-1.93a128.17,128.17,0,0,0,10.79-8.66l-87.18-2.22L213.12,215A125.62,125.62,0,0,0,248,148.74l-10-.18a117.12,117.12,0,0,1-35.37,60.18,108.39,108.39,0,0,0,29.94-60.27l-118-2.12,118.56-2.09q.48-4.51.57-9c-36.68.84-73.9,1.89-107.37,1.53,30.88-18.28,73.82-29.26,112.69-33.91,17.07-2,34.57-3.36,51.88-2.52L292,97.73c-27-4.48-56.6.09-83.14,2.14C233.21,91.73,268,86.18,296.25,87.09Zm-55.92,48c-.34,3-.79,6-1.38,9.07l9.8-.17c.44-3,.76-6,1-9.11Z" transform="translate(1.93)"/></g><g id="Слой_3" data-name="Слой 3"><polygon class="cls-1" points="553.38 172.91 279.48 177.91 553.38 182.41 553.38 172.91"/></g></svg>