<svg width="13" height="30" viewBox="0 0 13 30" fill="none" xmlns="http://www.w3.org/2000/svg">
<path d="M6.5 22.4717H0V25.4679H4.875V29.9622H8.125V25.2552C11.5946 24.4318 13.6833 21.1715 12.7904 17.9727C12.0518 15.3274 9.46298 13.4795 6.5 13.483C4.70509 13.483 3.25 12.1415 3.25 10.4868C3.25 8.83202 4.70509 7.49056 6.5 7.49056H13V4.49433H8.125V0H4.875V4.70706C1.40542 5.53037 -0.683313 8.79073 0.209625 11.9895C0.948187 14.6349 3.53702 16.4827 6.5 16.4792C8.29491 16.4792 9.75 17.8207 9.75 19.4754C9.75 21.1302 8.29491 22.4717 6.5 22.4717Z" fill="white"/>
</svg>
